<mxfile host="app.diagrams.net" modified="2020-10-07T00:07:47.233Z" agent="5.0 (Windows)" etag="tDnGZQnbaMCWBhaREoyZ" version="13.7.7" type="github">
  <diagram id="SXX5wPM7oAuvGYnb0EeN" name="Page-1">
    <mxGraphModel dx="2842" dy="898" grid="1" gridSize="10" guides="1" tooltips="1" connect="1" arrows="1" fold="1" page="1" pageScale="1" pageWidth="1169" pageHeight="827" math="0" shadow="0">
      <root>
        <mxCell id="0" />
        <mxCell id="1" parent="0" />
        <mxCell id="h3qoHlc95l_5dBq638zJ-27" style="edgeStyle=orthogonalEdgeStyle;rounded=0;orthogonalLoop=1;jettySize=auto;html=1;exitX=0.5;exitY=1;exitDx=0;exitDy=0;entryX=0.5;entryY=0;entryDx=0;entryDy=0;" edge="1" parent="1" source="h3qoHlc95l_5dBq638zJ-1" target="h3qoHlc95l_5dBq638zJ-25">
          <mxGeometry relative="1" as="geometry" />
        </mxCell>
        <mxCell id="h3qoHlc95l_5dBq638zJ-1" value="Начало" style="rounded=1;whiteSpace=wrap;html=1;" vertex="1" parent="1">
          <mxGeometry x="470" y="40" width="120" height="60" as="geometry" />
        </mxCell>
        <mxCell id="h3qoHlc95l_5dBq638zJ-6" value="" style="endArrow=classic;html=1;exitX=1;exitY=0.5;exitDx=0;exitDy=0;entryX=0;entryY=0.5;entryDx=0;entryDy=0;" edge="1" parent="1" source="h3qoHlc95l_5dBq638zJ-12" target="h3qoHlc95l_5dBq638zJ-14">
          <mxGeometry relative="1" as="geometry">
            <mxPoint x="630" y="314.5" as="sourcePoint" />
            <mxPoint x="820" y="315" as="targetPoint" />
          </mxGeometry>
        </mxCell>
        <mxCell id="h3qoHlc95l_5dBq638zJ-7" value="нет" style="edgeLabel;resizable=0;html=1;align=center;verticalAlign=middle;" connectable="0" vertex="1" parent="h3qoHlc95l_5dBq638zJ-6">
          <mxGeometry relative="1" as="geometry" />
        </mxCell>
        <mxCell id="h3qoHlc95l_5dBq638zJ-8" value="" style="endArrow=classic;html=1;exitX=0;exitY=0.5;exitDx=0;exitDy=0;entryX=0.5;entryY=0;entryDx=0;entryDy=0;" edge="1" parent="1" source="h3qoHlc95l_5dBq638zJ-12" target="h3qoHlc95l_5dBq638zJ-18">
          <mxGeometry relative="1" as="geometry">
            <mxPoint x="390" y="310" as="sourcePoint" />
            <mxPoint x="250" y="315" as="targetPoint" />
          </mxGeometry>
        </mxCell>
        <mxCell id="h3qoHlc95l_5dBq638zJ-9" value="&lt;div&gt;да&lt;/div&gt;" style="edgeLabel;resizable=0;html=1;align=center;verticalAlign=middle;" connectable="0" vertex="1" parent="h3qoHlc95l_5dBq638zJ-8">
          <mxGeometry relative="1" as="geometry" />
        </mxCell>
        <mxCell id="h3qoHlc95l_5dBq638zJ-12" value="Все обязательные поля заполнены" style="rhombus;whiteSpace=wrap;html=1;" vertex="1" parent="1">
          <mxGeometry x="435" y="300" width="190" height="170" as="geometry" />
        </mxCell>
        <mxCell id="h3qoHlc95l_5dBq638zJ-39" style="edgeStyle=orthogonalEdgeStyle;rounded=0;orthogonalLoop=1;jettySize=auto;html=1;exitX=0.5;exitY=1;exitDx=0;exitDy=0;entryX=1;entryY=0.75;entryDx=0;entryDy=0;" edge="1" parent="1" source="h3qoHlc95l_5dBq638zJ-14" target="h3qoHlc95l_5dBq638zJ-36">
          <mxGeometry relative="1" as="geometry" />
        </mxCell>
        <mxCell id="h3qoHlc95l_5dBq638zJ-14" value="Вывести сообщение об ошибке: &quot;Заполните обязательные поля&quot;" style="shape=parallelogram;perimeter=parallelogramPerimeter;whiteSpace=wrap;html=1;fixedSize=1;" vertex="1" parent="1">
          <mxGeometry x="860" y="322.5" width="170" height="125" as="geometry" />
        </mxCell>
        <mxCell id="h3qoHlc95l_5dBq638zJ-20" style="edgeStyle=orthogonalEdgeStyle;rounded=0;orthogonalLoop=1;jettySize=auto;html=1;exitX=1;exitY=0.5;exitDx=0;exitDy=0;" edge="1" parent="1" source="h3qoHlc95l_5dBq638zJ-18" target="h3qoHlc95l_5dBq638zJ-31">
          <mxGeometry relative="1" as="geometry">
            <mxPoint x="400" y="580" as="targetPoint" />
          </mxGeometry>
        </mxCell>
        <mxCell id="h3qoHlc95l_5dBq638zJ-22" style="edgeStyle=orthogonalEdgeStyle;rounded=0;orthogonalLoop=1;jettySize=auto;html=1;exitX=0;exitY=0.5;exitDx=0;exitDy=0;" edge="1" parent="1" source="h3qoHlc95l_5dBq638zJ-18" target="h3qoHlc95l_5dBq638zJ-30">
          <mxGeometry relative="1" as="geometry">
            <mxPoint x="50" y="520" as="targetPoint" />
          </mxGeometry>
        </mxCell>
        <mxCell id="h3qoHlc95l_5dBq638zJ-18" value="Есть ли email в БД" style="rhombus;whiteSpace=wrap;html=1;" vertex="1" parent="1">
          <mxGeometry x="140" y="380" width="170" height="165" as="geometry" />
        </mxCell>
        <mxCell id="h3qoHlc95l_5dBq638zJ-23" value="Да" style="text;html=1;strokeColor=none;fillColor=none;align=center;verticalAlign=middle;whiteSpace=wrap;rounded=0;" vertex="1" parent="1">
          <mxGeometry x="60" y="447.5" width="40" height="20" as="geometry" />
        </mxCell>
        <mxCell id="h3qoHlc95l_5dBq638zJ-24" value="Нет" style="text;html=1;strokeColor=none;fillColor=none;align=center;verticalAlign=middle;whiteSpace=wrap;rounded=0;" vertex="1" parent="1">
          <mxGeometry x="340" y="447.5" width="40" height="20" as="geometry" />
        </mxCell>
        <mxCell id="h3qoHlc95l_5dBq638zJ-28" style="edgeStyle=orthogonalEdgeStyle;rounded=0;orthogonalLoop=1;jettySize=auto;html=1;exitX=0.5;exitY=1;exitDx=0;exitDy=0;entryX=0.5;entryY=0;entryDx=0;entryDy=0;" edge="1" parent="1" source="h3qoHlc95l_5dBq638zJ-25" target="h3qoHlc95l_5dBq638zJ-12">
          <mxGeometry relative="1" as="geometry" />
        </mxCell>
        <mxCell id="h3qoHlc95l_5dBq638zJ-25" value="Заполнение полей" style="shape=parallelogram;perimeter=parallelogramPerimeter;whiteSpace=wrap;html=1;fixedSize=1;" vertex="1" parent="1">
          <mxGeometry x="462.5" y="140" width="135" height="90" as="geometry" />
        </mxCell>
        <mxCell id="h3qoHlc95l_5dBq638zJ-37" style="edgeStyle=orthogonalEdgeStyle;rounded=0;orthogonalLoop=1;jettySize=auto;html=1;exitX=0.5;exitY=1;exitDx=0;exitDy=0;entryX=0;entryY=0.5;entryDx=0;entryDy=0;" edge="1" parent="1" source="h3qoHlc95l_5dBq638zJ-30" target="h3qoHlc95l_5dBq638zJ-36">
          <mxGeometry relative="1" as="geometry" />
        </mxCell>
        <mxCell id="h3qoHlc95l_5dBq638zJ-30" value="Вывести сообщение: &quot;Предзаказ уже оформлен&quot;" style="shape=parallelogram;perimeter=parallelogramPerimeter;whiteSpace=wrap;html=1;fixedSize=1;" vertex="1" parent="1">
          <mxGeometry x="-140" y="467.5" width="180" height="130" as="geometry" />
        </mxCell>
        <mxCell id="h3qoHlc95l_5dBq638zJ-32" style="edgeStyle=orthogonalEdgeStyle;rounded=0;orthogonalLoop=1;jettySize=auto;html=1;exitX=0.5;exitY=1;exitDx=0;exitDy=0;" edge="1" parent="1" source="h3qoHlc95l_5dBq638zJ-31" target="h3qoHlc95l_5dBq638zJ-33">
          <mxGeometry relative="1" as="geometry">
            <mxPoint x="400" y="690" as="targetPoint" />
          </mxGeometry>
        </mxCell>
        <mxCell id="h3qoHlc95l_5dBq638zJ-31" value="Записать в БД" style="rounded=0;whiteSpace=wrap;html=1;" vertex="1" parent="1">
          <mxGeometry x="340" y="550" width="120" height="60" as="geometry" />
        </mxCell>
        <mxCell id="h3qoHlc95l_5dBq638zJ-34" style="edgeStyle=orthogonalEdgeStyle;rounded=0;orthogonalLoop=1;jettySize=auto;html=1;exitX=0.5;exitY=1;exitDx=0;exitDy=0;" edge="1" parent="1" source="h3qoHlc95l_5dBq638zJ-33" target="h3qoHlc95l_5dBq638zJ-36">
          <mxGeometry relative="1" as="geometry">
            <mxPoint x="40" y="748" as="targetPoint" />
          </mxGeometry>
        </mxCell>
        <mxCell id="h3qoHlc95l_5dBq638zJ-33" value="Вывести сообщение: &quot;Предзаказ оформлен&quot;" style="shape=parallelogram;perimeter=parallelogramPerimeter;whiteSpace=wrap;html=1;fixedSize=1;" vertex="1" parent="1">
          <mxGeometry x="310" y="660" width="180" height="120" as="geometry" />
        </mxCell>
        <mxCell id="h3qoHlc95l_5dBq638zJ-36" value="Конец" style="rounded=1;whiteSpace=wrap;html=1;" vertex="1" parent="1">
          <mxGeometry x="340" y="850" width="120" height="60" as="geometry" />
        </mxCell>
      </root>
    </mxGraphModel>
  </diagram>
</mxfile>
